<svg viewBox="0 0 16 16" xmlns="http://www.w3.org/2000/svg" fill-rule="evenodd" clip-rule="evenodd" stroke-linejoin="round" stroke-miterlimit="1.414" preserveAspectRatio="xMidYMid">
  <path d="M8,16 C3.581722,16 0,12.418278 0,8 C0,3.581722 3.581722,0 8,0 C12.418278,0 16,3.581722 16,8 C16,12.418278 12.418278,16 8,16 Z M5.91970054,8.953288 L5.91970054,9.34392742 C5.91970054,9.97871649 5.58765703,10.340058 5.05052782,10.340058 C4.5231646,10.340058 4.19112109,9.97871649 4.19112109,9.34392742 L4.19112109,6.75594124 C4.19112109,6.13091816 4.5231646,5.7598107 5.05052782,5.7598107 C5.58765703,5.7598107 5.91970054,6.13091816 5.91970054,6.75594124 L5.91970054,7.0489208 L7.25764057,7.0489208 L7.25764057,6.76570722 C7.25764057,5.37893726 6.35916989,4.5390625 5.07005979,4.5390625 C3.76141772,4.5390625 2.80435113,5.40823522 2.80435113,6.79500518 L2.80435113,9.33416144 C2.80435113,10.7209314 3.72235378,11.5705721 5.04076183,11.5705721 C6.32987194,11.5705721 7.25764057,10.6916334 7.25764057,9.30486348 L7.25764057,8.953288 L5.91970054,8.953288 Z M7.87615299,4.63672236 L9.93677596,11.4729123 L11.245418,11.4729123 L13.296275,4.63672236 L11.8802071,4.63672236 L10.620395,9.28533151 L9.38011478,4.63672236 L7.87615299,4.63672236 Z"/>
</svg>