<svg viewBox="0 0 16 16" xmlns="http://www.w3.org/2000/svg" fill-rule="evenodd" clip-rule="evenodd" stroke-linejoin="round" stroke-miterlimit="1.414" preserveAspectRatio="xMidYMid">
  <g id="cv" fill-rule="nonzero">
    <path d="M8,16 C3.581722,16 0,12.418278 0,8 C0,3.581722 3.581722,0 8,0 C12.418278,0 16,3.581722 16,8 C16,12.418278 12.418278,16 8,16 Z M5.5595,12.22625 L5.5595,6.5 L3.7775,6.5 L3.7775,12.22625 L5.5595,12.22625 Z M12.224,12.22625 L12.224,12.224 L12.224,9.083 C12.224,7.54025 11.89025,6.35525 10.09025,6.35525 C9.224,6.35525 8.6435,6.83 8.405,7.28 L8.3825,7.28 L8.3825,6.5 L6.6755,6.5 L6.6755,12.22625 L8.453,12.22625 L8.453,9.39275 C8.453,8.64575 8.59475,7.92275 9.521,7.92275 C10.433,7.92275 10.4465,8.777 10.4465,9.4415 L10.4465,12.22625 L12.224,12.22625 Z M4.6685,5.71625 C5.23775,5.71625 5.7005,5.2535 5.7005,4.6835 C5.7005,4.115 5.2385,3.65225 4.6685,3.65225 C4.097,3.65225 3.6365,4.115 3.6365,4.6835 C3.6365,5.2535 4.097,5.71625 4.6685,5.71625 Z"></path>
  </g>
</svg>