<svg viewBox="0 0 16 16" xmlns="http://www.w3.org/2000/svg" fill-rule="evenodd" clip-rule="evenodd" stroke-linejoin="round" stroke-miterlimit="1.414" preserveAspectRatio="xMidYMid">
  <path d="M8,16 C3.581722,16 0,12.418278 0,8 C0,3.581722 3.581722,0 8,0 C12.418278,0 16,3.581722 16,8 C16,12.418278 12.418278,16 8,16 Z M12.1934632,5.34764404 C12.6350678,5.08215947 12.9749141,4.66273298 13.1347267,4.16307406 C12.7211709,4.40442367 12.2626066,4.58054366 11.774689,4.67838809 C11.3846159,4.2609185 10.8288595,4 10.2117873,4 C9.02982646,4 8.07095099,4.95887548 8.07095099,6.13953167 C8.07095099,6.3091287 8.09051987,6.47220276 8.12639617,6.62875386 C6.34693202,6.54395534 4.76902741,5.68944727 3.71295979,4.39790071 C3.52770766,4.7116552 3.42334026,5.0769411 3.42334026,5.4748418 C3.42334026,6.21845952 3.80167208,6.87271265 4.37569277,7.25691514 C4.0247574,7.2458261 3.6940432,7.14928626 3.40572826,6.98947368 L3.40572826,7.01556553 C3.40572826,8.05271655 4.14282302,8.91896596 5.12322427,9.11595943 C4.9431905,9.16422935 4.75402459,9.1903212 4.55898802,9.1903212 C4.42200581,9.1903212 4.29154656,9.17727527 4.16108731,9.15248802 C4.43505173,10.0030823 5.22433019,10.6221114 6.16363677,10.6397234 C5.43306498,11.2137441 4.50680432,11.5555474 3.50879107,11.5555474 C3.33919405,11.5555474 3.16959702,11.5457629 3,11.526194 C3.95235251,12.1328295 5.07430205,12.4876787 6.28757306,12.4876787 C10.2274424,12.4876787 12.38002,9.22619749 12.38002,6.40175476 C12.38002,6.31043329 12.38002,6.21911182 12.373497,6.12779034 C12.7909666,5.82773407 13.1562525,5.44940225 13.4432628,5.01888673 C13.0381869,5.1800039 12.6272402,5.29546034 12.1934632,5.34764404 Z"/>
</svg>