<svg viewBox="0 0 16 16" xmlns="http://www.w3.org/2000/svg" fill-rule="evenodd" clip-rule="evenodd" stroke-linejoin="round" stroke-miterlimit="1.414" preserveAspectRatio="xMidYMid">
  <g id="cv" fill-rule="nonzero">
    <path d="M8,16 C3.581722,16 0,12.418278 0,8 C0,3.581722 3.581722,0 8,0 C12.418278,0 16,3.581722 16,8 C16,12.418278 12.418278,16 8,16 Z M2.97999999,6.7 L3.72399999,9.5 L4.09199999,9.5 L4.51999999,7.624 L4.94799999,9.5 L5.31599999,9.5 L6.05999999,6.7 L5.61599999,6.7 L5.13199999,8.732 L4.67999999,6.7 L4.37999999,6.7 L3.92799999,8.732 L3.44799999,6.7 L2.97999999,6.7 Z M6.46,6.7 L7.204,9.5 L7.572,9.5 L8,7.624 L8.428,9.5 L8.796,9.5 L9.54,6.7 L9.096,6.7 L8.612,8.732 L8.16,6.7 L7.86,6.7 L7.408,8.732 L6.928,6.7 L6.46,6.7 Z M9.94000001,6.7 L10.684,9.5 L11.052,9.5 L11.48,7.624 L11.908,9.5 L12.276,9.5 L13.02,6.7 L12.576,6.7 L12.092,8.732 L11.64,6.7 L11.34,6.7 L10.888,8.732 L10.408,6.7 L9.94000001,6.7 Z">
    </path>
  </g>
</svg>