<svg viewBox="0 0 16 16" xmlns="http://www.w3.org/2000/svg" fill-rule="evenodd" clip-rule="evenodd" stroke-linejoin="round" stroke-miterlimit="1.414" preserveAspectRatio="xMidYMid">
    <g id="www">
        <path d="M8,16 C3.581722,16 0,12.418278 0,8 C0,3.581722 3.581722,0 8,0 C12.418278,0 16,3.581722 16,8 C16,12.418278 12.418278,16 8,16 Z M12.8737447,11.5210215 C13.5147003,10.6360356 13.920586,9.5709394 13.9999631,8.41687619 L12.0244611,8.41687619 C11.9957643,9.32985793 11.8740798,10.1909053 11.6758952,10.9718382 C12.1045022,11.1270141 12.5062567,11.310149 12.8737447,11.5210215 Z M10.6514802,13.3985504 C11.2795259,13.0887519 11.8453462,12.6725765 12.326736,12.1736677 C12.050539,12.025168 11.7520633,11.8920125 11.4356613,11.7757873 C11.2220586,12.3883763 10.9575174,12.9352727 10.6514802,13.3985504 Z M9.00827767,13.9299919 C9.66697507,13.5073617 10.2376642,12.6446913 10.6316728,11.5245624 C9.93992617,11.3460013 9.18953196,11.2399196 8.4164533,11.2166819 L8.4164533,13.9999262 C8.61651907,13.9863156 8.81400288,13.9626353 9.00827767,13.9299919 Z M8.4164533,8.41658111 L8.4164533,10.3833353 C9.27842549,10.4064623 10.1073485,10.5216547 10.8721279,10.7212403 C11.0498044,10.0136352 11.1612348,9.23403026 11.1900053,8.41658111 L8.4164533,8.41658111 Z M8.4164533,5.39848894 L8.4164533,7.583382 L11.1902635,7.583382 C11.1591692,6.68493302 11.0283371,5.83118887 10.8194189,5.06895683 C10.065705,5.26190315 9.25371235,5.3752144 8.4164533,5.39848894 Z M8.4164533,2 L8.4164533,4.56517917 C9.16618357,4.54308495 9.89049989,4.4437163 10.5619227,4.27629452 C10.1745535,3.25726792 9.63654471,2.4735687 9.02159326,2.07251624 C8.82292912,2.03839746 8.62105596,2.01423768 8.4164533,2 Z M12.1850965,3.68406622 C11.737346,3.24992777 11.222907,2.88435884 10.6581195,2.60480614 C10.9307755,3.01917414 11.170825,3.49871824 11.3703744,4.03347944 C11.6568255,3.93071736 11.9291495,3.81386514 12.1850965,3.68406622 Z M13.9997418,7.583382 C13.9158278,6.36034352 13.464979,5.23730074 12.7561176,4.32276983 C12.4058918,4.51379813 12.0271906,4.68214204 11.624182,4.82503519 C11.8534978,5.65889824 11.993957,6.59054387 12.0245349,7.583382 L13.9997418,7.583382 Z M7.58314097,4.55717509 L7.58314097,2.00007377 C7.4624892,2.0084467 7.34316531,2.02032373 7.22461601,2.03574173 C6.58428748,2.42399503 6.02348363,3.22539913 5.62349961,4.27843386 C6.23778713,4.43135977 6.89818125,4.52574892 7.58314097,4.55717509 Z M7.58314097,7.583382 L7.58314097,5.39144387 C6.81006231,5.35784148 6.06258203,5.24895646 5.36622476,5.0710224 C5.15771225,5.83266428 5.02713835,6.6854863 4.99626537,7.583382 L7.58314097,7.583382 Z M7.58314097,10.3902328 L7.58314097,8.41658111 L4.99644979,8.41658111 C5.02529408,9.23613271 5.13731469,10.0177295 5.31561815,10.7271051 C6.02743036,10.5404661 6.79305819,10.4252368 7.58314097,10.3902328 Z M7.58314097,14 L7.58314097,11.2246122 C6.87383696,11.2579196 6.18887724,11.359612 5.55408151,11.5233084 C5.96018848,12.6785888 6.55488991,13.5587427 7.23984963,13.9664345 C7.35334565,13.9805984 7.4677638,13.9920697 7.58314097,14 Z M3.73674358,12.2400979 C4.27379331,12.7798755 4.91235134,13.2179237 5.6207701,13.5243657 C5.27762631,13.0347889 4.98309732,12.4435565 4.75001921,11.7734267 C4.38629343,11.9075412 4.04680128,12.0636392 3.73674358,12.2400979 Z M2.00007377,8.41658111 C2.08173779,9.60465245 2.50831609,10.6995518 3.18246842,11.5994762 C3.58366966,11.3584316 4.0299447,11.148887 4.51111323,10.975121 C4.31281794,10.1931553 4.19072765,9.33114891 4.16199402,8.41658111 L2.00007377,8.41658111 Z M3.30031691,4.25073309 C2.55884893,5.1782107 2.08642222,6.32829031 2,7.583382 L4.16173582,7.583382 C4.19235061,6.59069141 4.33284665,5.65956217 4.56190426,4.82562536 C4.10902675,4.66487979 3.68591566,4.47256051 3.30031691,4.25073309 Z M5.61354059,2.47876951 C4.96944976,2.75839599 4.38404343,3.14746076 3.87974783,3.62246799 C4.16992435,3.77804964 4.48381812,3.91478296 4.81593321,4.03410649 C5.0360277,3.44394376 5.30543781,2.92061697 5.61354059,2.47876951 Z"/>
    </g>
</svg>